<svg width="135" height="84" viewBox="0 0 135 84" fill="none" xmlns="http://www.w3.org/2000/svg">
<g opacity="0.8" filter="url(#filter0_b_5319_33704)">
<rect width="135" height="84" rx="10" fill="url(#paint0_linear_5319_33704)"/>
</g>
<g clip-path="url(#clip0_5319_33704)">
<path d="M76.1668 33.8333C76.1668 34.2754 75.9912 34.6993 75.6787 35.0118C75.3661 35.3244 74.9422 35.5 74.5002 35.5H59.5002C59.0581 35.5 58.6342 35.3244 58.3217 35.0118C58.0091 34.6993 57.8335 34.2754 57.8335 33.8333V24.6667C57.8335 24.2246 58.0091 23.8007 58.3217 23.4882C58.6342 23.1756 59.0581 23 59.5002 23H62.8335L64.5002 20.5H69.5002L71.1668 23H74.5002C74.9422 23 75.3661 23.1756 75.6787 23.4882C75.9912 23.8007 76.1668 24.2246 76.1668 24.6667V33.8333Z" stroke="white" stroke-width="2" stroke-linecap="round" stroke-linejoin="round"/>
<path d="M66.9998 32.1667C68.8408 32.1667 70.3332 30.6743 70.3332 28.8333C70.3332 26.9924 68.8408 25.5 66.9998 25.5C65.1589 25.5 63.6665 26.9924 63.6665 28.8333C63.6665 30.6743 65.1589 32.1667 66.9998 32.1667Z" stroke="white" stroke-width="2" stroke-linecap="round" stroke-linejoin="round"/>
</g>
<path d="M25.28 56.016H26.8C26.7147 55.408 26.5333 54.8747 26.256 54.416C25.9787 53.9467 25.632 53.5573 25.216 53.248C24.8 52.9387 24.3253 52.704 23.792 52.544C23.2587 52.384 22.6933 52.304 22.096 52.304C21.2213 52.304 20.4427 52.464 19.76 52.784C19.088 53.0933 18.5227 53.52 18.064 54.064C17.616 54.608 17.2747 55.248 17.04 55.984C16.8053 56.7093 16.688 57.488 16.688 58.32C16.688 59.152 16.7947 59.9307 17.008 60.656C17.232 61.3813 17.5627 62.0107 18 62.544C18.4373 63.0773 18.9867 63.4987 19.648 63.808C20.3093 64.1067 21.0827 64.256 21.968 64.256C23.4293 64.256 24.5813 63.856 25.424 63.056C26.2667 62.256 26.7627 61.136 26.912 59.696H25.392C25.36 60.1653 25.264 60.6027 25.104 61.008C24.944 61.4133 24.72 61.7653 24.432 62.064C24.1547 62.352 23.8187 62.5813 23.424 62.752C23.04 62.912 22.5973 62.992 22.096 62.992C21.4133 62.992 20.8267 62.864 20.336 62.608C19.8453 62.352 19.44 62.0107 19.12 61.584C18.8107 61.1467 18.5813 60.64 18.432 60.064C18.2827 59.4773 18.208 58.8587 18.208 58.208C18.208 57.6107 18.2827 57.0347 18.432 56.48C18.5813 55.9253 18.8107 55.4347 19.12 55.008C19.44 54.5707 19.84 54.224 20.32 53.968C20.8107 53.712 21.3973 53.584 22.08 53.584C22.88 53.584 23.568 53.7867 24.144 54.192C24.7307 54.5973 25.1093 55.2053 25.28 56.016ZM28.5709 52.576V64H29.9309V59.328C29.9309 58.9547 29.9789 58.6133 30.0749 58.304C30.1815 57.984 30.3362 57.7067 30.5389 57.472C30.7415 57.2373 30.9922 57.056 31.2909 56.928C31.6002 56.8 31.9629 56.736 32.3789 56.736C32.9015 56.736 33.3122 56.8853 33.6109 57.184C33.9095 57.4827 34.0589 57.888 34.0589 58.4V64H35.4189V58.56C35.4189 58.112 35.3709 57.7067 35.2749 57.344C35.1895 56.9707 35.0349 56.6507 34.8109 56.384C34.5869 56.1173 34.2935 55.9093 33.9309 55.76C33.5682 55.6107 33.1149 55.536 32.5709 55.536C32.3255 55.536 32.0695 55.5627 31.8029 55.616C31.5469 55.6693 31.2962 55.7547 31.0509 55.872C30.8162 55.9787 30.6029 56.1227 30.4109 56.304C30.2189 56.4747 30.0695 56.688 29.9629 56.944H29.9309V52.576H28.5709ZM44.7895 63.968C44.5548 64.1067 44.2295 64.176 43.8135 64.176C43.4615 64.176 43.1788 64.08 42.9655 63.888C42.7628 63.6853 42.6615 63.36 42.6615 62.912C42.2882 63.36 41.8508 63.6853 41.3495 63.888C40.8588 64.08 40.3255 64.176 39.7495 64.176C39.3762 64.176 39.0188 64.1333 38.6775 64.048C38.3468 63.9627 38.0588 63.8293 37.8135 63.648C37.5682 63.4667 37.3708 63.232 37.2215 62.944C37.0828 62.6453 37.0135 62.288 37.0135 61.872C37.0135 61.4027 37.0935 61.0187 37.2535 60.72C37.4135 60.4213 37.6215 60.1813 37.8775 60C38.1442 59.808 38.4428 59.664 38.7735 59.568C39.1148 59.472 39.4615 59.392 39.8135 59.328C40.1868 59.2533 40.5388 59.2 40.8695 59.168C41.2108 59.1253 41.5095 59.072 41.7655 59.008C42.0215 58.9333 42.2242 58.832 42.3735 58.704C42.5228 58.5653 42.5975 58.368 42.5975 58.112C42.5975 57.8133 42.5388 57.5733 42.4215 57.392C42.3148 57.2107 42.1708 57.072 41.9895 56.976C41.8188 56.88 41.6215 56.816 41.3975 56.784C41.1842 56.752 40.9708 56.736 40.7575 56.736C40.1815 56.736 39.7015 56.848 39.3175 57.072C38.9335 57.2853 38.7255 57.696 38.6935 58.304H37.3335C37.3548 57.792 37.4615 57.36 37.6535 57.008C37.8455 56.656 38.1015 56.3733 38.4215 56.16C38.7415 55.936 39.1042 55.776 39.5095 55.68C39.9255 55.584 40.3682 55.536 40.8375 55.536C41.2108 55.536 41.5788 55.5627 41.9415 55.616C42.3148 55.6693 42.6508 55.7813 42.9495 55.952C43.2482 56.112 43.4882 56.3413 43.6695 56.64C43.8508 56.9387 43.9415 57.328 43.9415 57.808V62.064C43.9415 62.384 43.9575 62.6187 43.9895 62.768C44.0322 62.9173 44.1602 62.992 44.3735 62.992C44.4908 62.992 44.6295 62.9653 44.7895 62.912V63.968ZM42.5815 59.728C42.4108 59.856 42.1868 59.952 41.9095 60.016C41.6322 60.0693 41.3388 60.1173 41.0295 60.16C40.7308 60.192 40.4268 60.2347 40.1175 60.288C39.8082 60.3307 39.5308 60.4053 39.2855 60.512C39.0402 60.6187 38.8375 60.7733 38.6775 60.976C38.5282 61.168 38.4535 61.4347 38.4535 61.776C38.4535 62 38.4962 62.192 38.5815 62.352C38.6775 62.5013 38.7948 62.624 38.9335 62.72C39.0828 62.816 39.2535 62.8853 39.4455 62.928C39.6375 62.9707 39.8402 62.992 40.0535 62.992C40.5015 62.992 40.8855 62.9333 41.2055 62.816C41.5255 62.688 41.7868 62.5333 41.9895 62.352C42.1922 62.16 42.3415 61.9573 42.4375 61.744C42.5335 61.52 42.5815 61.312 42.5815 61.12V59.728ZM46.0553 55.728V64H47.4153V59.328C47.4153 58.9547 47.4633 58.6133 47.5593 58.304C47.6659 57.984 47.8206 57.7067 48.0233 57.472C48.2259 57.2373 48.4766 57.056 48.7753 56.928C49.0846 56.8 49.4473 56.736 49.8633 56.736C50.3859 56.736 50.7966 56.8853 51.0953 57.184C51.3939 57.4827 51.5433 57.888 51.5433 58.4V64H52.9033V58.56C52.9033 58.112 52.8553 57.7067 52.7593 57.344C52.6739 56.9707 52.5193 56.6507 52.2953 56.384C52.0713 56.1173 51.7779 55.9093 51.4153 55.76C51.0526 55.6107 50.5993 55.536 50.0553 55.536C48.8286 55.536 47.9326 56.0373 47.3673 57.04H47.3353V55.728H46.0553ZM62.0819 63.296V55.728H60.8019V56.912H60.7859C60.5405 56.4533 60.1992 56.112 59.7619 55.888C59.3245 55.6533 58.8445 55.536 58.3219 55.536C57.6072 55.536 57.0045 55.6747 56.5139 55.952C56.0232 56.2187 55.6285 56.5653 55.3299 56.992C55.0312 57.408 54.8179 57.8773 54.6899 58.4C54.5619 58.912 54.4979 59.4133 54.4979 59.904C54.4979 60.4693 54.5725 61.008 54.7219 61.52C54.8819 62.0213 55.1165 62.464 55.4259 62.848C55.7352 63.2213 56.1192 63.52 56.5779 63.744C57.0365 63.968 57.5752 64.08 58.1939 64.08C58.7272 64.08 59.2285 63.9627 59.6979 63.728C60.1779 63.4827 60.5352 63.104 60.7699 62.592H60.8019V63.136C60.8019 63.5947 60.7539 64.016 60.6579 64.4C60.5725 64.784 60.4285 65.1093 60.2259 65.376C60.0232 65.6533 59.7672 65.8667 59.4579 66.016C59.1485 66.176 58.7699 66.256 58.3219 66.256C58.0979 66.256 57.8632 66.2293 57.6179 66.176C57.3725 66.1333 57.1432 66.0587 56.9299 65.952C56.7272 65.8453 56.5512 65.7067 56.4019 65.536C56.2632 65.3653 56.1885 65.1573 56.1779 64.912H54.8179C54.8392 65.36 54.9565 65.7387 55.1699 66.048C55.3832 66.3573 55.6499 66.608 55.9699 66.8C56.3005 66.992 56.6632 67.1307 57.0579 67.216C57.4632 67.3013 57.8579 67.344 58.2419 67.344C59.5645 67.344 60.5352 67.008 61.1539 66.336C61.7725 65.664 62.0819 64.6507 62.0819 63.296ZM58.2739 62.896C57.8259 62.896 57.4525 62.8053 57.1539 62.624C56.8552 62.432 56.6152 62.1867 56.4339 61.888C56.2525 61.5787 56.1245 61.2373 56.0499 60.864C55.9752 60.4907 55.9379 60.1173 55.9379 59.744C55.9379 59.3493 55.9805 58.9707 56.0659 58.608C56.1619 58.2453 56.3059 57.9253 56.4979 57.648C56.7005 57.3707 56.9565 57.152 57.2659 56.992C57.5752 56.8213 57.9485 56.736 58.3859 56.736C58.8125 56.736 59.1752 56.8213 59.4739 56.992C59.7725 57.1627 60.0125 57.392 60.1939 57.68C60.3859 57.9573 60.5245 58.272 60.6099 58.624C60.6952 58.976 60.7379 59.3333 60.7379 59.696C60.7379 60.08 60.6899 60.464 60.5939 60.848C60.5085 61.232 60.3699 61.5787 60.1779 61.888C59.9859 62.1867 59.7299 62.432 59.4099 62.624C59.1005 62.8053 58.7219 62.896 58.2739 62.896ZM69.8774 59.072H65.1254C65.1467 58.752 65.216 58.4533 65.3334 58.176C65.4507 57.888 65.6107 57.6373 65.8134 57.424C66.016 57.2107 66.256 57.0453 66.5334 56.928C66.8214 56.8 67.1414 56.736 67.4934 56.736C67.8347 56.736 68.144 56.8 68.4214 56.928C68.7094 57.0453 68.9547 57.2107 69.1574 57.424C69.3707 57.6267 69.536 57.872 69.6534 58.16C69.7814 58.448 69.856 58.752 69.8774 59.072ZM71.1894 61.376H69.8454C69.728 61.92 69.4827 62.3253 69.1094 62.592C68.7467 62.8587 68.2774 62.992 67.7014 62.992C67.2534 62.992 66.864 62.9173 66.5334 62.768C66.2027 62.6187 65.9307 62.4213 65.7174 62.176C65.504 61.92 65.3494 61.632 65.2534 61.312C65.1574 60.9813 65.1147 60.6347 65.1254 60.272H71.3174C71.3387 59.7707 71.2907 59.2427 71.1734 58.688C71.0667 58.1333 70.864 57.6213 70.5654 57.152C70.2774 56.6827 69.888 56.2987 69.3974 56C68.9174 55.6907 68.3094 55.536 67.5734 55.536C67.008 55.536 66.4854 55.6427 66.0054 55.856C65.536 56.0693 65.1254 56.368 64.7734 56.752C64.432 57.136 64.1654 57.5893 63.9734 58.112C63.7814 58.6347 63.6854 59.2107 63.6854 59.84C63.7067 60.4693 63.7974 61.0507 63.9574 61.584C64.128 62.1173 64.3787 62.576 64.7094 62.96C65.04 63.344 65.4454 63.6427 65.9254 63.856C66.416 64.0693 66.992 64.176 67.6534 64.176C68.592 64.176 69.3707 63.9413 69.9894 63.472C70.608 63.0027 71.008 62.304 71.1894 61.376ZM78.9243 58.048V53.856H81.9003C82.7643 53.856 83.3936 54.0373 83.7883 54.4C84.1936 54.752 84.3963 55.2693 84.3963 55.952C84.3963 56.6347 84.1936 57.1573 83.7883 57.52C83.3936 57.8827 82.7643 58.0587 81.9003 58.048H78.9243ZM77.4043 52.576V64H78.9243V59.328H82.4123C83.5643 59.3387 84.4336 59.0453 85.0203 58.448C85.6176 57.8507 85.9163 57.0187 85.9163 55.952C85.9163 54.8853 85.6176 54.0587 85.0203 53.472C84.4336 52.8747 83.5643 52.576 82.4123 52.576H77.4043ZM87.5553 52.576V64H88.9153V59.328C88.9153 58.9547 88.9633 58.6133 89.0593 58.304C89.1659 57.984 89.3206 57.7067 89.5233 57.472C89.7259 57.2373 89.9766 57.056 90.2753 56.928C90.5846 56.8 90.9473 56.736 91.3633 56.736C91.8859 56.736 92.2966 56.8853 92.5953 57.184C92.8939 57.4827 93.0433 57.888 93.0433 58.4V64H94.4033V58.56C94.4033 58.112 94.3553 57.7067 94.2593 57.344C94.1739 56.9707 94.0193 56.6507 93.7953 56.384C93.5713 56.1173 93.2779 55.9093 92.9153 55.76C92.5526 55.6107 92.0993 55.536 91.5553 55.536C91.3099 55.536 91.0539 55.5627 90.7873 55.616C90.5313 55.6693 90.2806 55.7547 90.0353 55.872C89.8006 55.9787 89.5873 56.1227 89.3953 56.304C89.2033 56.4747 89.0539 56.688 88.9473 56.944H88.9153V52.576H87.5553ZM97.4379 59.872C97.4379 59.3707 97.5019 58.928 97.6299 58.544C97.7685 58.1493 97.9552 57.8187 98.1899 57.552C98.4245 57.2853 98.6965 57.0827 99.0059 56.944C99.3259 56.8053 99.6619 56.736 100.014 56.736C100.366 56.736 100.697 56.8053 101.006 56.944C101.326 57.0827 101.603 57.2853 101.838 57.552C102.073 57.8187 102.254 58.1493 102.382 58.544C102.521 58.928 102.59 59.3707 102.59 59.872C102.59 60.3733 102.521 60.8213 102.382 61.216C102.254 61.6 102.073 61.9253 101.838 62.192C101.603 62.448 101.326 62.6453 101.006 62.784C100.697 62.9227 100.366 62.992 100.014 62.992C99.6619 62.992 99.3259 62.9227 99.0059 62.784C98.6965 62.6453 98.4245 62.448 98.1899 62.192C97.9552 61.9253 97.7685 61.6 97.6299 61.216C97.5019 60.8213 97.4379 60.3733 97.4379 59.872ZM95.9979 59.872C95.9979 60.48 96.0832 61.0453 96.2539 61.568C96.4245 62.0907 96.6805 62.5493 97.0219 62.944C97.3632 63.328 97.7845 63.632 98.2859 63.856C98.7872 64.0693 99.3632 64.176 100.014 64.176C100.675 64.176 101.251 64.0693 101.742 63.856C102.243 63.632 102.665 63.328 103.006 62.944C103.347 62.5493 103.603 62.0907 103.774 61.568C103.945 61.0453 104.03 60.48 104.03 59.872C104.03 59.264 103.945 58.6987 103.774 58.176C103.603 57.6427 103.347 57.184 103.006 56.8C102.665 56.4053 102.243 56.096 101.742 55.872C101.251 55.648 100.675 55.536 100.014 55.536C99.3632 55.536 98.7872 55.648 98.2859 55.872C97.7845 56.096 97.3632 56.4053 97.0219 56.8C96.6805 57.184 96.4245 57.6427 96.2539 58.176C96.0832 58.6987 95.9979 59.264 95.9979 59.872ZM107.521 55.728V53.248H106.161V55.728H104.753V56.928H106.161V62.192C106.161 62.576 106.199 62.8853 106.273 63.12C106.348 63.3547 106.46 63.536 106.609 63.664C106.769 63.792 106.972 63.8827 107.217 63.936C107.473 63.9787 107.777 64 108.129 64H109.169V62.8H108.545C108.332 62.8 108.156 62.7947 108.017 62.784C107.889 62.7627 107.788 62.7253 107.713 62.672C107.639 62.6187 107.585 62.544 107.553 62.448C107.532 62.352 107.521 62.224 107.521 62.064V56.928H109.169V55.728H107.521ZM111.672 59.872C111.672 59.3707 111.736 58.928 111.864 58.544C112.003 58.1493 112.19 57.8187 112.424 57.552C112.659 57.2853 112.931 57.0827 113.24 56.944C113.56 56.8053 113.896 56.736 114.248 56.736C114.6 56.736 114.931 56.8053 115.24 56.944C115.56 57.0827 115.838 57.2853 116.072 57.552C116.307 57.8187 116.488 58.1493 116.616 58.544C116.755 58.928 116.824 59.3707 116.824 59.872C116.824 60.3733 116.755 60.8213 116.616 61.216C116.488 61.6 116.307 61.9253 116.072 62.192C115.838 62.448 115.56 62.6453 115.24 62.784C114.931 62.9227 114.6 62.992 114.248 62.992C113.896 62.992 113.56 62.9227 113.24 62.784C112.931 62.6453 112.659 62.448 112.424 62.192C112.19 61.9253 112.003 61.6 111.864 61.216C111.736 60.8213 111.672 60.3733 111.672 59.872ZM110.232 59.872C110.232 60.48 110.318 61.0453 110.488 61.568C110.659 62.0907 110.915 62.5493 111.256 62.944C111.598 63.328 112.019 63.632 112.52 63.856C113.022 64.0693 113.598 64.176 114.248 64.176C114.91 64.176 115.486 64.0693 115.976 63.856C116.478 63.632 116.899 63.328 117.24 62.944C117.582 62.5493 117.838 62.0907 118.008 61.568C118.179 61.0453 118.264 60.48 118.264 59.872C118.264 59.264 118.179 58.6987 118.008 58.176C117.838 57.6427 117.582 57.184 117.24 56.8C116.899 56.4053 116.478 56.096 115.976 55.872C115.486 55.648 114.91 55.536 114.248 55.536C113.598 55.536 113.022 55.648 112.52 55.872C112.019 56.096 111.598 56.4053 111.256 56.8C110.915 57.184 110.659 57.6427 110.488 58.176C110.318 58.6987 110.232 59.264 110.232 59.872Z" fill="white"/>
<defs>
<filter id="filter0_b_5319_33704" x="-50" y="-50" width="235" height="184" filterUnits="userSpaceOnUse" color-interpolation-filters="sRGB">
<feFlood flood-opacity="0" result="BackgroundImageFix"/>
<feGaussianBlur in="BackgroundImageFix" stdDeviation="25"/>
<feComposite in2="SourceAlpha" operator="in" result="effect1_backgroundBlur_5319_33704"/>
<feBlend mode="normal" in="SourceGraphic" in2="effect1_backgroundBlur_5319_33704" result="shape"/>
</filter>
<linearGradient id="paint0_linear_5319_33704" x1="135" y1="-1.47825e-06" x2="127.512" y2="95.798" gradientUnits="userSpaceOnUse">
<stop offset="0.000718772" stop-color="#181623"/>
<stop offset="0.50664" stop-color="#191725"/>
<stop offset="0.96875" stop-color="#0D0B14"/>
</linearGradient>
<clipPath id="clip0_5319_33704">
<rect width="20" height="20" fill="white" transform="translate(57 18)"/>
</clipPath>
</defs>
</svg>
