<svg width="24" height="24" viewBox="0 0 24 24" fill="none" xmlns="http://www.w3.org/2000/svg">
<path d="M17.6134 15.5161C19.0658 13.5342 19.7163 11.0769 19.4348 8.63587C19.1533 6.19486 17.9605 3.95016 16.095 2.35085C14.2295 0.751532 11.829 -0.0844439 9.37362 0.0101658C6.91825 0.104776 4.58915 1.12299 2.85227 2.86111C1.1154 4.59923 0.098846 6.92907 0.00599324 9.3845C-0.0868595 11.8399 0.750834 14.2399 2.35148 16.1042C3.95213 17.9685 6.19769 19.1598 8.6389 19.4395C11.0801 19.7193 13.5369 19.067 15.5179 17.6131H15.5164C15.5614 17.6731 15.6094 17.7302 15.6634 17.7857L21.4384 23.5606C21.7196 23.8421 22.1012 24.0003 22.4991 24.0005C22.897 24.0006 23.2787 23.8427 23.5601 23.5614C23.8416 23.2801 23.9998 22.8986 23.9999 22.5007C24.0001 22.1028 23.8421 21.7211 23.5609 21.4397L17.7859 15.6646C17.7322 15.6104 17.6746 15.5602 17.6134 15.5147V15.5161ZM18.0004 9.75015C18.0004 10.8336 17.787 11.9064 17.3724 12.9073C16.9578 13.9082 16.3501 14.8177 15.584 15.5838C14.8179 16.3499 13.9084 16.9576 12.9075 17.3722C11.9066 17.7868 10.8338 18.0002 9.75037 18.0002C8.66696 18.0002 7.59417 17.7868 6.59323 17.3722C5.5923 16.9576 4.68282 16.3499 3.91674 15.5838C3.15066 14.8177 2.54297 13.9082 2.12836 12.9073C1.71376 11.9064 1.50037 10.8336 1.50037 9.75015C1.50037 7.56211 2.36956 5.4637 3.91674 3.91652C5.46391 2.36935 7.56233 1.50015 9.75037 1.50015C11.9384 1.50015 14.0368 2.36935 15.584 3.91652C17.1312 5.4637 18.0004 7.56211 18.0004 9.75015Z" fill="white"/>
</svg>
