<svg width="16" height="16" viewBox="0 0 16 16" fill="none" xmlns="http://www.w3.org/2000/svg">
<g clip-path="url(#clip0_7473_3706)">
<path d="M14 0.999268C14.2652 0.999268 14.5196 1.10462 14.7071 1.29216C14.8946 1.4797 15 1.73405 15 1.99927V13.9993C15 14.2645 14.8946 14.5188 14.7071 14.7064C14.5196 14.8939 14.2652 14.9993 14 14.9993H2C1.73478 14.9993 1.48043 14.8939 1.29289 14.7064C1.10536 14.5188 1 14.2645 1 13.9993V1.99927C1 1.73405 1.10536 1.4797 1.29289 1.29216C1.48043 1.10462 1.73478 0.999268 2 0.999268H14ZM2 -0.000732422C1.46957 -0.000732422 0.960859 0.209981 0.585786 0.585054C0.210714 0.960127 0 1.46883 0 1.99927V13.9993C0 14.5297 0.210714 15.0384 0.585786 15.4135C0.960859 15.7886 1.46957 15.9993 2 15.9993H14C14.5304 15.9993 15.0391 15.7886 15.4142 15.4135C15.7893 15.0384 16 14.5297 16 13.9993V1.99927C16 1.46883 15.7893 0.960127 15.4142 0.585054C15.0391 0.209981 14.5304 -0.000732422 14 -0.000732422H2Z" fill="white"/>
<path d="M8 3.99927C8.13261 3.99927 8.25979 4.05195 8.35355 4.14571C8.44732 4.23948 8.5 4.36666 8.5 4.49927V7.49927H11.5C11.6326 7.49927 11.7598 7.55195 11.8536 7.64571C11.9473 7.73948 12 7.86666 12 7.99927C12 8.13188 11.9473 8.25905 11.8536 8.35282C11.7598 8.44659 11.6326 8.49927 11.5 8.49927H8.5V11.4993C8.5 11.6319 8.44732 11.7591 8.35355 11.8528C8.25979 11.9466 8.13261 11.9993 8 11.9993C7.86739 11.9993 7.74021 11.9466 7.64645 11.8528C7.55268 11.7591 7.5 11.6319 7.5 11.4993V8.49927H4.5C4.36739 8.49927 4.24021 8.44659 4.14645 8.35282C4.05268 8.25905 4 8.13188 4 7.99927C4 7.86666 4.05268 7.73948 4.14645 7.64571C4.24021 7.55195 4.36739 7.49927 4.5 7.49927H7.5V4.49927C7.5 4.36666 7.55268 4.23948 7.64645 4.14571C7.74021 4.05195 7.86739 3.99927 8 3.99927Z" fill="white"/>
</g>
<defs>
<clipPath id="clip0_7473_3706">
<rect width="16" height="16" fill="white"/>
</clipPath>
</defs>
</svg>
