<svg width="57" height="57" viewBox="0 0 57 57" fill="none" xmlns="http://www.w3.org/2000/svg">
<path fill-rule="evenodd" clip-rule="evenodd" d="M56.9632 1.42331C57.0333 1.76487 57.0015 2.11948 56.872 2.44318L46.4054 28.6062C44.1572 28.3416 41.8785 28.5561 39.7193 29.2356C37.56 29.9151 35.5691 31.0442 33.8776 32.5485C32.1862 34.0529 30.8325 35.8984 29.9056 37.9636C28.9788 40.0288 28.4998 42.2669 28.5002 44.5306C28.5002 46.3118 28.5002 49.8743 25.75 45.8131L20.0856 36.9139L2.29092 25.5923L2.28735 25.5852L0.82673 24.6589C0.549216 24.4834 0.325615 24.2346 0.180624 23.94C0.0356332 23.6454 -0.0251036 23.3165 0.00512256 22.9895C0.0353487 22.6625 0.155362 22.3503 0.351904 22.0873C0.548447 21.8242 0.81387 21.6207 1.11885 21.499L2.7291 20.8577H2.73267L54.5564 0.127559C54.8801 -0.00201137 55.2347 -0.0337301 55.5762 0.0363352C55.9178 0.106401 56.2313 0.275169 56.4778 0.521717C56.7244 0.768265 56.8931 1.08175 56.9632 1.42331ZM23.6445 35.8737L50.3419 9.17631H50.3455L52.0199 4.97968L47.8232 6.65762L21.1259 33.355L22.33 34.1209C22.5509 34.2613 22.7383 34.4486 22.8786 34.6696L23.6445 35.8737Z" fill="#302B63"/>
<path fill-rule="evenodd" clip-rule="evenodd" d="M53.3482 53.3471C55.6865 51.0088 57.0002 47.8373 57.0002 44.5304C57.0002 41.2235 55.6865 38.052 53.3482 35.7136C51.0098 33.3753 47.8383 32.0616 44.5314 32.0616C41.2245 32.0616 38.053 33.3753 35.7147 35.7136C33.3763 38.052 32.0627 41.2235 32.0627 44.5304C32.0627 47.8373 33.3763 51.0088 35.7147 53.3471C38.053 55.6855 41.2245 56.9991 44.5314 56.9991C47.8383 56.9991 51.0098 55.6855 53.3482 53.3471ZM49.2456 38.3148C49.477 38.3491 49.6994 38.4287 49.9001 38.5489C50.1008 38.6691 50.2759 38.8277 50.4154 39.0156C50.5548 39.2035 50.6558 39.417 50.7128 39.6439C50.7697 39.8709 50.7813 40.1068 50.747 40.3383C50.7127 40.5697 50.6331 40.7921 50.5129 40.9928L45.7569 48.9229C45.5479 49.2713 45.2622 49.5675 44.9216 49.7889C44.5809 50.0102 44.1942 50.151 43.791 50.2005C43.3877 50.2499 42.9785 50.2068 42.5944 50.0743C42.2103 49.9418 41.8615 49.7235 41.5745 49.4359L38.8172 46.6821C38.4827 46.3477 38.2948 45.894 38.2948 45.421C38.2948 44.948 38.4827 44.4944 38.8172 44.1599C39.1516 43.8254 39.6053 43.6375 40.0783 43.6375C40.5513 43.6375 41.0049 43.8254 41.3394 44.1599L43.2881 46.1086L47.4562 39.1617C47.5764 38.961 47.735 38.7859 47.9229 38.6464C48.1108 38.507 48.3243 38.4059 48.5512 38.349C48.7782 38.2921 49.0141 38.2805 49.2456 38.3148Z" fill="#302B63"/>
</svg>
